v 0.876900 0.029186 -0.390223
v 0.642409 0.029186 -0.712974
v 0.296915 0.029186 -0.912445
v -0.099841 0.029186 -0.954146
v -0.479257 0.029186 -0.830866
v -0.775728 0.029186 -0.563922
v -0.937993 0.029186 -0.199471
v -0.937993 0.029186 0.199471
v -0.775729 0.029186 0.563922
v -0.479257 0.029186 0.830866
v -0.099841 0.029186 0.954146
v 0.296915 0.029186 0.912445
v 0.642409 0.029186 0.712974
v 0.876901 0.029186 0.390224
v 0.959845 0.029186 0.000000
v 0.913545 0.158411 -0.406736
v 0.669131 0.158411 -0.743145
v 0.309017 0.158411 -0.951056
v -0.104528 0.158411 -0.994522
v -0.500000 0.158411 -0.866025
v -0.809017 0.158411 -0.587785
v -0.978147 0.158411 -0.207912
v -0.978148 0.158411 0.207912
v -0.809017 0.158411 0.587785
v -0.500000 0.158411 0.866025
v -0.104529 0.158411 0.994522
v 0.309017 0.158411 0.951056
v 0.669131 0.158411 0.743145
v 0.913545 0.158411 0.406737
v 1.000000 0.158411 0.000000
v 0.812302 0.287636 -0.361114
v 0.595302 0.287636 -0.659789
v 0.275581 0.287636 -0.844380
v -0.091578 0.287636 -0.882970
v -0.442691 0.287636 -0.768886
v -0.717047 0.287636 -0.521856
v -0.867207 0.287636 -0.184591
v -0.867207 0.287636 0.184591
v -0.717047 0.287636 0.521855
v -0.442691 0.287636 0.768886
v -0.091578 0.287636 0.882970
v 0.275581 0.287636 0.844380
v 0.595302 0.287636 0.659789
v 0.812302 0.287636 0.361114
v 0.889059 0.287636 0.000000
v 0.506887 0.339076 -0.223489
v 0.372589 0.339076 -0.408334
v 0.174718 0.339076 -0.522574
v -0.052512 0.339076 -0.546458
v -0.269811 0.339076 -0.475853
v -0.439606 0.339076 -0.322969
v -0.532538 0.339076 -0.114241
v -0.532538 0.339076 0.114241
v -0.439606 0.339076 0.322969
v -0.269811 0.339076 0.475853
v -0.052512 0.339076 0.546458
v 0.174717 0.339076 0.522575
v 0.372589 0.339076 0.408334
v 0.506887 0.339076 0.223489
v 0.554391 0.339076 0.000000
v 0.000000 0.029186 0.000000
v 0.000000 0.366284 0.000000
vt 0.939936 0.813542
vt 0.878904 0.897085
vt 0.476836 0.505579
vt 0.540450 0.418501
vt 0.788982 0.948717
vt 0.383108 0.559396
vt 0.685717 0.959511
vt 0.275474 0.570647
vt 0.586966 0.927601
vt 0.172543 0.537386
vt 0.509802 0.858503
vt 0.092115 0.465365
vt 0.467569 0.764166
vt 0.048095 0.367036
vt 0.467569 0.660901
vt 0.048095 0.259401
vt 0.509802 0.566564
vt 0.092115 0.161072
vt 0.586966 0.497467
vt 0.172543 0.089051
vt 0.685717 0.465556
vt 0.275474 0.055790
vt 0.788982 0.476350
vt 0.383108 0.067041
vt 0.878904 0.527983
vt 0.476836 0.120858
vt 0.939936 0.611526
vt 0.540450 0.207936
vt 0.961524 0.712534
vt 0.562952 0.313218
vt 0.457620 0.484003
vt 0.514099 0.406692
vt 0.374406 0.531783
vt 0.278844 0.541772
vt 0.187459 0.512242
vt 0.116052 0.448299
vt 0.076970 0.360999
vt 0.076970 0.265438
vt 0.116052 0.178138
vt 0.187459 0.114195
vt 0.278844 0.084665
vt 0.374406 0.094654
vt 0.457620 0.142434
vt 0.514099 0.219745
vt 0.534077 0.313218
vt 0.399654 0.418914
vt 0.434608 0.371068
vt 0.348154 0.448485
vt 0.289012 0.454667
vt 0.232455 0.436392
vt 0.188262 0.396818
vt 0.164074 0.342789
vt 0.164074 0.283648
vt 0.188262 0.229619
vt 0.232455 0.190045
vt 0.289012 0.171770
vt 0.348154 0.177952
vt 0.399654 0.207522
vt 0.434608 0.255369
vt 0.446972 0.313218
vt 0.711703 0.712534
vt 0.302680 0.313218
vt 0.289012 0.171770
vt 0.278844 0.084665
vt 0.275474 0.055790
vt 0.587496 0.313218
vt 0.562849 0.428539
vt 0.562849 0.197898
vt 0.493169 0.102518
vt 0.390505 0.043569
vt 0.272609 0.031246
vt 0.272609 0.031246
vt 0.159865 0.067678
vt 0.071768 0.146566
vt 0.023551 0.254270
vt 0.023551 0.372167
vt 0.071768 0.479871
vt 0.159865 0.558759
vt 0.272609 0.595191
vt 0.390505 0.582867
vt 0.493169 0.523919
vn 0.873767 -0.296991 -0.385132
vn 0.641527 -0.297716 -0.706971
vn 0.888996 0.233050 -0.394175
vn 0.652705 0.245029 -0.716895
vn 0.298487 -0.298789 -0.906439
vn 0.304475 0.245913 -0.920229
vn -0.095945 -0.300021 -0.949095
vn -0.096147 0.246944 -0.964248
vn -0.473542 -0.301201 -0.827669
vn -0.479826 0.247941 -0.841601
vn -0.769076 -0.302123 -0.563244
vn -0.780373 0.248734 -0.573716
vn -0.931553 -0.302631 -0.201555
vn -0.944120 0.260248 -0.202260
vn -0.932960 -0.302636 0.194928
vn -0.946823 0.249182 0.203556
vn -0.773057 -0.302137 0.557761
vn -0.782427 0.248718 0.570918
vn -0.476479 -0.301212 0.825978
vn -0.481912 0.243576 0.841684
vn -0.095946 -0.300021 0.949095
vn -0.096147 0.246944 0.964248
vn 0.298486 -0.298789 0.906439
vn 0.304474 0.245913 0.920229
vn 0.639007 -0.297727 0.709246
vn 0.650697 0.249386 0.717217
vn 0.871005 -0.297000 0.391334
vn 0.886696 0.244433 0.392457
vn 0.954953 -0.296737 0.003395
vn 0.969706 0.244263 -0.002417
vn 0.290807 0.903242 -0.315572
vn 0.386559 0.906409 -0.170280
vn 0.136898 0.903885 -0.405279
vn -0.039634 0.904632 -0.424347
vn -0.208075 0.905352 -0.370192
vn -0.339703 0.905924 -0.252792
vn -0.408705 0.908520 -0.086901
vn -0.412477 0.906253 0.092560
vn -0.339703 0.905924 0.252792
vn -0.208075 0.905352 0.370192
vn -0.039634 0.904632 0.424347
vn 0.136898 0.903885 0.405279
vn 0.290807 0.903242 0.315572
vn 0.394819 0.902819 0.170398
vn 0.443656 0.896191 -0.003441
vn 0.104771 0.988459 -0.109412
vn 0.140545 0.988401 -0.057536
vn 0.051046 0.988547 -0.142018
vn -0.011086 0.988648 -0.149839
vn -0.070802 0.988745 -0.131796
vn -0.117925 0.988821 -0.091247
vn -0.145485 0.988876 -0.030965
vn -0.144582 0.988865 0.035252
vn -0.117925 0.988821 0.091247
vn -0.070802 0.988745 0.131796
vn -0.011086 0.988648 0.149839
vn 0.051046 0.988547 0.142018
vn 0.104771 0.988459 0.109412
vn 0.140545 0.988401 0.057536
vn 0.151920 0.988393 -0.000000
vn 0.000000 -1.000000 0.000000
vn 0.000000 -1.000000 0.000000
vn 0.000000 -1.000000 0.000000
vn 0.000000 -1.000000 0.000000
vn 0.000000 -1.000000 -0.000000
vn 0.000000 -1.000000 0.000000
vn 0.000000 -1.000000 0.000000
vn 0.000000 -1.000000 -0.000000
vn 0.000000 -1.000000 0.000000
vn 0.000000 -1.000000 0.000000
vn 0.000000 -1.000000 0.000000
vn 0.000000 -1.000000 0.000000
vn 0.000000 -1.000000 0.000000
vn 0.000000 -1.000000 -0.000000
vn 0.000000 -1.000000 0.000000
vn 0.000000 -1.000000 0.000000
vn 0.044826 0.998796 -0.019928
vn 0.032934 0.998791 -0.036501
vn -0.000225 1.000000 -0.000000
vn 0.015303 0.998783 -0.046886
vn -0.005106 0.998774 -0.049238
vn -0.024787 0.998765 -0.043053
vn -0.040278 0.998758 -0.029315
vn -0.048799 0.998755 -0.010388
vn -0.048799 0.998755 0.010388
vn -0.040278 0.998758 0.029315
vn -0.024787 0.998765 0.043053
vn -0.005106 0.998774 0.049238
vn 0.015303 0.998783 0.046886
vn 0.032934 0.998791 0.036501
vn 0.044826 0.998796 0.019928
vn 0.049019 0.998798 0.000000
f 1/67/1 2/81/2 16/4/3
f 16/4/3 2/81/2 17/3/4
f 2/81/2 3/80/5 17/3/4
f 17/3/4 3/80/5 18/6/6
f 3/80/5 4/79/7 18/6/6
f 18/6/6 4/79/7 19/8/8
f 4/79/7 5/78/9 19/8/8
f 19/8/8 5/78/9 20/10/10
f 5/78/9 6/77/11 20/10/10
f 20/10/10 6/77/11 21/12/12
f 6/77/11 7/76/13 21/12/12
f 21/12/12 7/76/13 22/14/14
f 7/76/13 8/75/15 22/14/14
f 22/14/14 8/75/15 23/16/16
f 8/75/15 9/74/17 23/16/16
f 23/16/16 9/74/17 24/18/18
f 9/74/17 10/73/19 24/18/18
f 24/18/18 10/73/19 25/20/20
f 11/71/21 26/65/22 10/73/19
f 10/73/19 26/65/22 25/20/20
f 12/70/23 27/24/24 11/72/21
f 11/72/21 27/24/24 26/22/22
f 13/69/25 28/26/26 12/70/23
f 12/70/23 28/26/26 27/24/24
f 13/69/25 14/68/27 28/26/26
f 28/26/26 14/68/27 29/28/28
f 14/68/27 15/66/29 29/28/28
f 29/28/28 15/66/29 30/30/30
f 15/66/29 1/67/1 30/30/30
f 30/30/30 1/67/1 16/4/3
f 17/3/4 32/31/31 16/4/3
f 16/4/3 32/31/31 31/32/32
f 18/6/6 33/33/33 17/3/4
f 17/3/4 33/33/33 32/31/31
f 19/8/8 34/34/34 18/6/6
f 18/6/6 34/34/34 33/33/33
f 20/10/10 35/35/35 19/8/8
f 19/8/8 35/35/35 34/34/34
f 21/12/12 36/36/36 20/10/10
f 20/10/10 36/36/36 35/35/35
f 22/14/14 37/37/37 21/12/12
f 21/12/12 37/37/37 36/36/36
f 22/14/14 23/16/16 37/37/37
f 37/37/37 23/16/16 38/38/38
f 23/16/16 24/18/18 38/38/38
f 38/38/38 24/18/18 39/39/39
f 24/18/18 25/20/20 39/39/39
f 39/39/39 25/20/20 40/40/40
f 25/20/20 26/65/22 40/40/40
f 40/40/40 26/65/22 41/64/41
f 26/22/22 27/24/24 41/41/41
f 41/41/41 27/24/24 42/42/42
f 27/24/24 28/26/26 42/42/42
f 42/42/42 28/26/26 43/43/43
f 28/26/26 29/28/28 43/43/43
f 43/43/43 29/28/28 44/44/44
f 29/28/28 30/30/30 44/44/44
f 44/44/44 30/30/30 45/45/45
f 30/30/30 16/4/3 45/45/45
f 45/45/45 16/4/3 31/32/32
f 32/31/31 47/46/46 31/32/32
f 31/32/32 47/46/46 46/47/47
f 33/33/33 48/48/48 32/31/31
f 32/31/31 48/48/48 47/46/46
f 34/34/34 49/49/49 33/33/33
f 33/33/33 49/49/49 48/48/48
f 35/35/35 50/50/50 34/34/34
f 34/34/34 50/50/50 49/49/49
f 36/36/36 51/51/51 35/35/35
f 35/35/35 51/51/51 50/50/50
f 37/37/37 52/52/52 36/36/36
f 36/36/36 52/52/52 51/51/51
f 37/37/37 38/38/38 52/52/52
f 52/52/52 38/38/38 53/53/53
f 38/38/38 39/39/39 53/53/53
f 53/53/53 39/39/39 54/54/54
f 39/39/39 40/40/40 54/54/54
f 54/54/54 40/40/40 55/55/55
f 40/40/40 41/64/41 55/55/55
f 55/55/55 41/64/41 56/63/56
f 41/41/41 42/42/42 56/56/56
f 56/56/56 42/42/42 57/57/57
f 42/42/42 43/43/43 57/57/57
f 57/57/57 43/43/43 58/58/58
f 43/43/43 44/44/44 58/58/58
f 58/58/58 44/44/44 59/59/59
f 44/44/44 45/45/45 59/59/59
f 59/59/59 45/45/45 60/60/60
f 31/32/32 46/47/47 45/45/45
f 45/45/45 46/47/47 60/60/60
f 2/2/61 1/1/62 61/61/63
f 3/5/64 2/2/61 61/61/63
f 4/7/65 3/5/64 61/61/63
f 5/9/66 4/7/65 61/61/63
f 6/11/67 5/9/66 61/61/63
f 7/13/68 6/11/67 61/61/63
f 8/15/69 7/13/68 61/61/63
f 9/17/70 8/15/69 61/61/63
f 10/19/71 9/17/70 61/61/63
f 11/21/72 10/19/71 61/61/63
f 12/23/73 11/21/72 61/61/63
f 13/25/74 12/23/73 61/61/63
f 14/27/75 13/25/74 61/61/63
f 15/29/76 14/27/75 61/61/63
f 1/1/62 15/29/76 61/61/63
f 46/47/77 47/46/78 62/62/79
f 47/46/78 48/48/80 62/62/79
f 48/48/80 49/49/81 62/62/79
f 49/49/81 50/50/82 62/62/79
f 50/50/82 51/51/83 62/62/79
f 51/51/83 52/52/84 62/62/79
f 52/52/84 53/53/85 62/62/79
f 53/53/85 54/54/86 62/62/79
f 54/54/86 55/55/87 62/62/79
f 55/55/87 56/63/88 62/62/79
f 56/56/88 57/57/89 62/62/79
f 57/57/89 58/58/90 62/62/79
f 58/58/90 59/59/91 62/62/79
f 59/59/91 60/60/92 62/62/79
f 60/60/92 46/47/77 62/62/79
v 0.876900 0.029186 -0.390223
v 0.642409 0.029186 -0.712974
v 0.296915 0.029186 -0.912445
v -0.099841 0.029186 -0.954146
v -0.479257 0.029186 -0.830866
v -0.775728 0.029186 -0.563922
v -0.937993 0.029186 -0.199471
v -0.937993 0.029186 0.199471
v -0.775729 0.029186 0.563922
v -0.479257 0.029186 0.830866
v -0.099841 0.029186 0.954146
v 0.296915 0.029186 0.912445
v 0.642409 0.029186 0.712974
v 0.876901 0.029186 0.390224
v 0.959845 0.029186 0.000000
v 0.913545 0.158411 -0.406736
v 0.669131 0.158411 -0.743145
v 0.309017 0.158411 -0.951056
v -0.104528 0.158411 -0.994522
v -0.500000 0.158411 -0.866025
v -0.809017 0.158411 -0.587785
v -0.978147 0.158411 -0.207912
v -0.978148 0.158411 0.207912
v -0.809017 0.158411 0.587785
v -0.500000 0.158411 0.866025
v -0.104529 0.158411 0.994522
v 0.309017 0.158411 0.951056
v 0.669131 0.158411 0.743145
v 0.913545 0.158411 0.406737
v 1.000000 0.158411 0.000000
v 0.812302 0.287636 -0.361114
v 0.595302 0.287636 -0.659789
v 0.275581 0.287636 -0.844380
v -0.091578 0.287636 -0.882970
v -0.442691 0.287636 -0.768886
v -0.717047 0.287636 -0.521856
v -0.867207 0.287636 -0.184591
v -0.867207 0.287636 0.184591
v -0.717047 0.287636 0.521855
v -0.442691 0.287636 0.768886
v -0.091578 0.287636 0.882970
v 0.275581 0.287636 0.844380
v 0.595302 0.287636 0.659789
v 0.812302 0.287636 0.361114
v 0.889059 0.287636 0.000000
v 0.506887 0.339076 -0.223489
v 0.372589 0.339076 -0.408334
v 0.174718 0.339076 -0.522574
v -0.052512 0.339076 -0.546458
v -0.269811 0.339076 -0.475853
v -0.439606 0.339076 -0.322969
v -0.532538 0.339076 -0.114241
v -0.532538 0.339076 0.114241
v -0.439606 0.339076 0.322969
v -0.269811 0.339076 0.475853
v -0.052512 0.339076 0.546458
v 0.174717 0.339076 0.522575
v 0.372589 0.339076 0.408334
v 0.506887 0.339076 0.223489
v 0.554391 0.339076 0.000000
v 0.000000 0.029186 0.000000
v 0.000000 0.366284 0.000000
vt 0.939936 0.813542
vt 0.878904 0.897085
vt 0.476836 0.505579
vt 0.540450 0.418501
vt 0.788982 0.948717
vt 0.383108 0.559396
vt 0.685717 0.959511
vt 0.275474 0.570647
vt 0.586966 0.927601
vt 0.172543 0.537386
vt 0.509802 0.858503
vt 0.092115 0.465365
vt 0.467569 0.764166
vt 0.048095 0.367036
vt 0.467569 0.660901
vt 0.048095 0.259401
vt 0.509802 0.566564
vt 0.092115 0.161072
vt 0.586966 0.497467
vt 0.172543 0.089051
vt 0.685717 0.465556
vt 0.275474 0.055790
vt 0.788982 0.476350
vt 0.383108 0.067041
vt 0.878904 0.527983
vt 0.476836 0.120858
vt 0.939936 0.611526
vt 0.540450 0.207936
vt 0.961524 0.712534
vt 0.562952 0.313218
vt 0.457620 0.484003
vt 0.514099 0.406692
vt 0.374406 0.531783
vt 0.278844 0.541772
vt 0.187459 0.512242
vt 0.116052 0.448299
vt 0.076970 0.360999
vt 0.076970 0.265438
vt 0.116052 0.178138
vt 0.187459 0.114195
vt 0.278844 0.084665
vt 0.374406 0.094654
vt 0.457620 0.142434
vt 0.514099 0.219745
vt 0.534077 0.313218
vt 0.399654 0.418914
vt 0.434608 0.371068
vt 0.348154 0.448485
vt 0.289012 0.454667
vt 0.232455 0.436392
vt 0.188262 0.396818
vt 0.164074 0.342789
vt 0.164074 0.283648
vt 0.188262 0.229619
vt 0.232455 0.190045
vt 0.289012 0.171770
vt 0.348154 0.177952
vt 0.399654 0.207522
vt 0.434608 0.255369
vt 0.446972 0.313218
vt 0.711703 0.712534
vt 0.302680 0.313218
vt 0.289012 0.171770
vt 0.278844 0.084665
vt 0.275474 0.055790
vt 0.587496 0.313218
vt 0.562849 0.428539
vt 0.562849 0.197898
vt 0.493169 0.102518
vt 0.390505 0.043569
vt 0.272609 0.031246
vt 0.272609 0.031246
vt 0.159865 0.067678
vt 0.071768 0.146566
vt 0.023551 0.254270
vt 0.023551 0.372167
vt 0.071768 0.479871
vt 0.159865 0.558759
vt 0.272609 0.595191
vt 0.390505 0.582867
vt 0.493169 0.523919
vn 0.873767 -0.296991 -0.385132
vn 0.641527 -0.297716 -0.706971
vn 0.888996 0.233050 -0.394175
vn 0.652705 0.245029 -0.716895
vn 0.298487 -0.298789 -0.906439
vn 0.304475 0.245913 -0.920229
vn -0.095945 -0.300021 -0.949095
vn -0.096147 0.246944 -0.964248
vn -0.473542 -0.301201 -0.827669
vn -0.479826 0.247941 -0.841601
vn -0.769076 -0.302123 -0.563244
vn -0.780373 0.248734 -0.573716
vn -0.931553 -0.302631 -0.201555
vn -0.944120 0.260248 -0.202260
vn -0.932960 -0.302636 0.194928
vn -0.946823 0.249182 0.203556
vn -0.773057 -0.302137 0.557761
vn -0.782427 0.248718 0.570918
vn -0.476479 -0.301212 0.825978
vn -0.481912 0.243576 0.841684
vn -0.095946 -0.300021 0.949095
vn -0.096147 0.246944 0.964248
vn 0.298486 -0.298789 0.906439
vn 0.304474 0.245913 0.920229
vn 0.639007 -0.297727 0.709246
vn 0.650697 0.249386 0.717217
vn 0.871005 -0.297000 0.391334
vn 0.886696 0.244433 0.392457
vn 0.954953 -0.296737 0.003395
vn 0.969706 0.244263 -0.002417
vn 0.290807 0.903242 -0.315572
vn 0.386559 0.906409 -0.170280
vn 0.136898 0.903885 -0.405279
vn -0.039634 0.904632 -0.424347
vn -0.208075 0.905352 -0.370192
vn -0.339703 0.905924 -0.252792
vn -0.408705 0.908520 -0.086901
vn -0.412477 0.906253 0.092560
vn -0.339703 0.905924 0.252792
vn -0.208075 0.905352 0.370192
vn -0.039634 0.904632 0.424347
vn 0.136898 0.903885 0.405279
vn 0.290807 0.903242 0.315572
vn 0.394819 0.902819 0.170398
vn 0.443656 0.896191 -0.003441
vn 0.104771 0.988459 -0.109412
vn 0.140545 0.988401 -0.057536
vn 0.051046 0.988547 -0.142018
vn -0.011086 0.988648 -0.149839
vn -0.070802 0.988745 -0.131796
vn -0.117925 0.988821 -0.091247
vn -0.145485 0.988876 -0.030965
vn -0.144582 0.988865 0.035252
vn -0.117925 0.988821 0.091247
vn -0.070802 0.988745 0.131796
vn -0.011086 0.988648 0.149839
vn 0.051046 0.988547 0.142018
vn 0.104771 0.988459 0.109412
vn 0.140545 0.988401 0.057536
vn 0.151920 0.988393 -0.000000
vn 0.000000 -1.000000 0.000000
vn 0.000000 -1.000000 0.000000
vn 0.000000 -1.000000 0.000000
vn 0.000000 -1.000000 0.000000
vn 0.000000 -1.000000 -0.000000
vn 0.000000 -1.000000 0.000000
vn 0.000000 -1.000000 0.000000
vn 0.000000 -1.000000 -0.000000
vn 0.000000 -1.000000 0.000000
vn 0.000000 -1.000000 0.000000
vn 0.000000 -1.000000 0.000000
vn 0.000000 -1.000000 0.000000
vn 0.000000 -1.000000 0.000000
vn 0.000000 -1.000000 -0.000000
vn 0.000000 -1.000000 0.000000
vn 0.000000 -1.000000 0.000000
vn 0.044826 0.998796 -0.019928
vn 0.032934 0.998791 -0.036501
vn -0.000225 1.000000 -0.000000
vn 0.015303 0.998783 -0.046886
vn -0.005106 0.998774 -0.049238
vn -0.024787 0.998765 -0.043053
vn -0.040278 0.998758 -0.029315
vn -0.048799 0.998755 -0.010388
vn -0.048799 0.998755 0.010388
vn -0.040278 0.998758 0.029315
vn -0.024787 0.998765 0.043053
vn -0.005106 0.998774 0.049238
vn 0.015303 0.998783 0.046886
vn 0.032934 0.998791 0.036501
vn 0.044826 0.998796 0.019928
vn 0.049019 0.998798 0.000000
f 63/148/93 64/162/94 78/85/95
f 78/85/95 64/162/94 79/84/96
f 64/162/94 65/161/97 79/84/96
f 79/84/96 65/161/97 80/87/98
f 65/161/97 66/160/99 80/87/98
f 80/87/98 66/160/99 81/89/100
f 66/160/99 67/159/101 81/89/100
f 81/89/100 67/159/101 82/91/102
f 67/159/101 68/158/103 82/91/102
f 82/91/102 68/158/103 83/93/104
f 68/158/103 69/157/105 83/93/104
f 83/93/104 69/157/105 84/95/106
f 69/157/105 70/156/107 84/95/106
f 84/95/106 70/156/107 85/97/108
f 70/156/107 71/155/109 85/97/108
f 85/97/108 71/155/109 86/99/110
f 71/155/109 72/154/111 86/99/110
f 86/99/110 72/154/111 87/101/112
f 73/152/113 88/146/114 72/154/111
f 72/154/111 88/146/114 87/101/112
f 74/151/115 89/105/116 73/153/113
f 73/153/113 89/105/116 88/103/114
f 75/150/117 90/107/118 74/151/115
f 74/151/115 90/107/118 89/105/116
f 75/150/117 76/149/119 90/107/118
f 90/107/118 76/149/119 91/109/120
f 76/149/119 77/147/121 91/109/120
f 91/109/120 77/147/121 92/111/122
f 77/147/121 63/148/93 92/111/122
f 92/111/122 63/148/93 78/85/95
f 79/84/96 94/112/123 78/85/95
f 78/85/95 94/112/123 93/113/124
f 80/87/98 95/114/125 79/84/96
f 79/84/96 95/114/125 94/112/123
f 81/89/100 96/115/126 80/87/98
f 80/87/98 96/115/126 95/114/125
f 82/91/102 97/116/127 81/89/100
f 81/89/100 97/116/127 96/115/126
f 83/93/104 98/117/128 82/91/102
f 82/91/102 98/117/128 97/116/127
f 84/95/106 99/118/129 83/93/104
f 83/93/104 99/118/129 98/117/128
f 84/95/106 85/97/108 99/118/129
f 99/118/129 85/97/108 100/119/130
f 85/97/108 86/99/110 100/119/130
f 100/119/130 86/99/110 101/120/131
f 86/99/110 87/101/112 101/120/131
f 101/120/131 87/101/112 102/121/132
f 87/101/112 88/146/114 102/121/132
f 102/121/132 88/146/114 103/145/133
f 88/103/114 89/105/116 103/122/133
f 103/122/133 89/105/116 104/123/134
f 89/105/116 90/107/118 104/123/134
f 104/123/134 90/107/118 105/124/135
f 90/107/118 91/109/120 105/124/135
f 105/124/135 91/109/120 106/125/136
f 91/109/120 92/111/122 106/125/136
f 106/125/136 92/111/122 107/126/137
f 92/111/122 78/85/95 107/126/137
f 107/126/137 78/85/95 93/113/124
f 94/112/123 109/127/138 93/113/124
f 93/113/124 109/127/138 108/128/139
f 95/114/125 110/129/140 94/112/123
f 94/112/123 110/129/140 109/127/138
f 96/115/126 111/130/141 95/114/125
f 95/114/125 111/130/141 110/129/140
f 97/116/127 112/131/142 96/115/126
f 96/115/126 112/131/142 111/130/141
f 98/117/128 113/132/143 97/116/127
f 97/116/127 113/132/143 112/131/142
f 99/118/129 114/133/144 98/117/128
f 98/117/128 114/133/144 113/132/143
f 99/118/129 100/119/130 114/133/144
f 114/133/144 100/119/130 115/134/145
f 100/119/130 101/120/131 115/134/145
f 115/134/145 101/120/131 116/135/146
f 101/120/131 102/121/132 116/135/146
f 116/135/146 102/121/132 117/136/147
f 102/121/132 103/145/133 117/136/147
f 117/136/147 103/145/133 118/144/148
f 103/122/133 104/123/134 118/137/148
f 118/137/148 104/123/134 119/138/149
f 104/123/134 105/124/135 119/138/149
f 119/138/149 105/124/135 120/139/150
f 105/124/135 106/125/136 120/139/150
f 120/139/150 106/125/136 121/140/151
f 106/125/136 107/126/137 121/140/151
f 121/140/151 107/126/137 122/141/152
f 93/113/124 108/128/139 107/126/137
f 107/126/137 108/128/139 122/141/152
f 64/83/153 63/82/154 123/142/155
f 65/86/156 64/83/153 123/142/155
f 66/88/157 65/86/156 123/142/155
f 67/90/158 66/88/157 123/142/155
f 68/92/159 67/90/158 123/142/155
f 69/94/160 68/92/159 123/142/155
f 70/96/161 69/94/160 123/142/155
f 71/98/162 70/96/161 123/142/155
f 72/100/163 71/98/162 123/142/155
f 73/102/164 72/100/163 123/142/155
f 74/104/165 73/102/164 123/142/155
f 75/106/166 74/104/165 123/142/155
f 76/108/167 75/106/166 123/142/155
f 77/110/168 76/108/167 123/142/155
f 63/82/154 77/110/168 123/142/155
f 108/128/169 109/127/170 124/143/171
f 109/127/170 110/129/172 124/143/171
f 110/129/172 111/130/173 124/143/171
f 111/130/173 112/131/174 124/143/171
f 112/131/174 113/132/175 124/143/171
f 113/132/175 114/133/176 124/143/171
f 114/133/176 115/134/177 124/143/171
f 115/134/177 116/135/178 124/143/171
f 116/135/178 117/136/179 124/143/171
f 117/136/179 118/144/180 124/143/171
f 118/137/180 119/138/181 124/143/171
f 119/138/181 120/139/182 124/143/171
f 120/139/182 121/140/183 124/143/171
f 121/140/183 122/141/184 124/143/171
f 122/141/184 108/128/169 124/143/171
